<svg width="195" height="68" viewBox="0 0 195 68" fill="none" xmlns="http://www.w3.org/2000/svg">
<path d="M36.7508 13.1039H26.2492L31.495 24.3376L36.7508 13.1039ZM24.9402 14.0451L19.6844 25.2788H30.186L24.9402 14.0451ZM43.3156 25.2788L38.0598 14.0451L32.814 25.2788H43.3156ZM32.814 27.149L38.0598 38.3827L43.3156 27.149H32.814ZM19.6844 27.149L24.9402 38.3827L30.186 27.149H19.6844ZM13.1196 39.3117H23.6213L18.3754 28.0903L13.1196 39.3117ZM49.8704 39.3117L44.6246 28.0903L39.3787 39.3117H49.8704ZM31.495 0L26.2492 11.2337H36.7508L31.495 0ZM44.6246 52.4156L49.8704 41.1942H39.3787L44.6246 52.4156ZM18.3754 52.4156L23.6213 41.1942H13.1196L18.3754 52.4156ZM6.56479 53.3568H17.0565L11.8106 42.1232L6.56479 53.3568ZM56.4352 53.3568L51.1894 42.1232L45.9335 53.3568H56.4352ZM45.9335 55.2271L51.1894 66.4607L56.4352 55.2271H45.9335ZM32.814 55.2271L38.0598 66.4607L43.3156 55.2271H32.814ZM11.8106 66.4607L17.0565 55.2271H6.56479L11.8106 66.4607ZM0 67.402H10.5017L5.24584 56.1683L0 67.402ZM26.2492 67.402H36.7508L31.495 56.1683L26.2492 67.402ZM39.3787 67.402H49.8704L44.6246 56.1683L39.3787 67.402ZM57.7542 56.1683L52.4983 67.402H63L57.7542 56.1683Z" fill="white"/>
<path d="M86.104 21.9909H88.348L91.748 30.5589L95.182 21.9909H97.46L93.244 32.2929L97.868 43.2069L106.606 21.8209H109.19L98.956 45.9609H96.848L91.782 34.0269L86.682 45.9609H84.608L74.408 21.8209H76.958L85.73 43.2069L90.32 32.2929L86.104 21.9909ZM108.89 40.8609C108.89 39.7729 109.207 38.8323 109.842 38.0389C110.476 37.2229 111.349 36.5883 112.46 36.1349C113.593 35.6816 114.896 35.4549 116.37 35.4549C117.231 35.4549 118.126 35.5343 119.056 35.6929C119.985 35.8289 120.812 36.0216 121.538 36.2709V34.7749C121.538 33.2789 121.096 32.0889 120.212 31.2049C119.328 30.3209 118.104 29.8789 116.54 29.8789C115.61 29.8789 114.681 30.0603 113.752 30.4229C112.822 30.7629 111.859 31.2729 110.862 31.9529L109.978 30.3209C111.134 29.5276 112.267 28.9383 113.378 28.5529C114.488 28.1449 115.622 27.9409 116.778 27.9409C118.954 27.9409 120.676 28.5643 121.946 29.8109C123.215 31.0576 123.85 32.7803 123.85 34.9789V43.1729C123.85 43.7849 124.133 44.1023 124.7 44.1249V45.9609C124.201 46.0289 123.85 46.0516 123.646 46.0289C123.079 46.0063 122.648 45.8249 122.354 45.4849C122.059 45.1449 121.9 44.7823 121.878 44.3969L121.844 43.1049C121.05 44.1249 120.019 44.9183 118.75 45.4849C117.48 46.0289 116.188 46.3009 114.874 46.3009C113.718 46.3009 112.686 46.0629 111.78 45.5869C110.873 45.0883 110.159 44.4309 109.638 43.6149C109.139 42.7763 108.89 41.8583 108.89 40.8609ZM120.756 42.2209C121.277 41.6089 121.538 41.0423 121.538 40.5209V37.9369C119.974 37.3249 118.342 37.0189 116.642 37.0189C114.987 37.0189 113.65 37.3476 112.63 38.0049C111.61 38.6623 111.1 39.5576 111.1 40.6909C111.1 41.6656 111.474 42.5496 112.222 43.3429C112.992 44.1363 114.058 44.5329 115.418 44.5329C116.528 44.5329 117.56 44.3176 118.512 43.8869C119.486 43.4563 120.234 42.9009 120.756 42.2209ZM129.389 28.2469L134.591 35.1829L134.863 35.6929L135.135 35.1829L140.303 28.2469H142.921L136.189 37.1549L142.921 45.9609H140.303L135.135 39.0589L134.863 38.5829L134.591 39.0589L129.423 45.9609H126.805L133.503 37.1549L126.805 28.2469H129.389ZM152.729 46.3009C151.029 46.3009 149.51 45.8816 148.173 45.0429C146.858 44.2043 145.827 43.0936 145.079 41.7109C144.331 40.3056 143.957 38.7869 143.957 37.1549C143.957 35.5003 144.331 33.9816 145.079 32.5989C145.85 31.1936 146.892 30.0716 148.207 29.2329C149.544 28.3716 151.052 27.9409 152.729 27.9409C154.429 27.9409 155.936 28.3716 157.251 29.2329C158.588 30.0716 159.631 31.1936 160.379 32.5989C161.15 33.9816 161.535 35.5003 161.535 37.1549C161.535 38.7869 161.161 40.3056 160.413 41.7109C159.665 43.0936 158.622 44.2043 157.285 45.0429C155.97 45.8816 154.452 46.3009 152.729 46.3009ZM146.303 37.1889C146.303 38.5036 146.586 39.7049 147.153 40.7929C147.742 41.8583 148.524 42.7083 149.499 43.3429C150.474 43.9549 151.55 44.2609 152.729 44.2609C153.908 44.2609 154.984 43.9436 155.959 43.3089C156.934 42.6743 157.716 41.8129 158.305 40.7249C158.894 39.6369 159.189 38.4356 159.189 37.1209C159.189 35.8063 158.894 34.6049 158.305 33.5169C157.716 32.4289 156.934 31.5676 155.959 30.9329C154.984 30.2983 153.908 29.9809 152.729 29.9809C151.573 29.9809 150.508 30.3096 149.533 30.9669C148.558 31.6016 147.776 32.4629 147.187 33.5509C146.598 34.6389 146.303 35.8516 146.303 37.1889ZM191.752 45.9609H189.44V36.0669C189.44 34.0269 189.111 32.5196 188.454 31.5449C187.796 30.5476 186.822 30.0489 185.53 30.0489C184.17 30.0489 182.968 30.5249 181.926 31.4769C180.883 32.4289 180.146 33.6529 179.716 35.1489V45.9609H177.404V36.0669C177.404 33.9816 177.075 32.4629 176.418 31.5109C175.783 30.5363 174.82 30.0489 173.528 30.0489C172.19 30.0489 170.989 30.5136 169.924 31.4429C168.881 32.3723 168.144 33.5963 167.714 35.1149V45.9609H165.402V28.2469H167.51V32.2589C168.235 30.8989 169.187 29.8449 170.366 29.0969C171.544 28.3263 172.848 27.9409 174.276 27.9409C175.749 27.9409 176.939 28.3716 177.846 29.2329C178.752 30.0716 179.308 31.1596 179.512 32.4969C181.144 29.4596 183.422 27.9409 186.346 27.9409C188.34 27.9409 189.734 28.6436 190.528 30.0489C191.344 31.4316 191.752 33.2789 191.752 35.5909V45.9609Z" fill="white"/>
</svg>
